{
 "cells": [
  {
   "cell_type": "code",
   "execution_count": 1,
   "metadata": {
    "collapsed": true
   },
   "outputs": [],
   "source": [
    "from IPython.display import Image\n",
    "from IPython.display import HTML"
   ]
  },
  {
   "cell_type": "code",
   "execution_count": 3,
   "metadata": {
    "scrolled": true
   },
   "outputs": [
    {
     "name": "stdout",
     "output_type": "stream",
     "text": [
      "Input #0, mov,mp4,m4a,3gp,3g2,mj2, from 'inputs/moonrise.mp4':\n",
      "  Metadata:\n",
      "    major_brand     : mp42\n",
      "    minor_version   : 0\n",
      "    compatible_brands: isommp42\n",
      "    creation_time   : 2016-03-10 17:24:52\n",
      "  Duration: 00:01:56.84, start: 0.000000, bitrate: 539 kb/s\n",
      "    Stream #0:0(und): Video: h264 (Constrained Baseline) (avc1 / 0x31637661), yuv420p(tv, bt709), 640x360 [SAR 1:1 DAR 16:9], 441 kb/s, 23.98 fps, 23.98 tbr, 24k tbn, 47.95 tbc (default)\n",
      "    Metadata:\n",
      "      handler_name    : VideoHandler\n",
      "    Stream #0:1(eng): Audio: aac (LC) (mp4a / 0x6134706D), 44100 Hz, stereo, fltp, 95 kb/s (default)\n",
      "    Metadata:\n",
      "      creation_time   : 2016-03-10 17:24:52\n",
      "      handler_name    : IsoMedia File Produced by Google, 5-11-2011\n",
      "\u001b[1;34m[swscaler @ 0x7f8940826c00] \u001b[0m\u001b[0;33mdeprecated pixel format used, make sure you did set range correctly\n",
      "\u001b[0mOutput #0, image2, to 'temp/wes/moon%04d.jpg':\n",
      "  Metadata:\n",
      "    major_brand     : mp42\n",
      "    minor_version   : 0\n",
      "    compatible_brands: isommp42\n",
      "    encoder         : Lavf56.25.101\n",
      "    Stream #0:0(und): Video: mjpeg, yuvj420p(pc), 640x360 [SAR 1:1 DAR 16:9], q=2-31, 200 kb/s, 1 fps, 1 tbn, 1 tbc (default)\n",
      "    Metadata:\n",
      "      handler_name    : VideoHandler\n",
      "      encoder         : Lavc56.26.100 mjpeg\n",
      "Stream mapping:\n",
      "  Stream #0:0 -> #0:0 (h264 (native) -> mjpeg (native))\n",
      "Press [q] to stop, [?] for help\n",
      "frame=  118 fps= 70 q=1.6 Lsize=N/A time=00:01:58.00 bitrate=N/A    \n",
      "video:2926kB audio:0kB subtitle:0kB other streams:0kB global headers:0kB muxing overhead: unknown\n",
      "Input #0, mov,mp4,m4a,3gp,3g2,mj2, from 'inputs/budapest.mp4':\n",
      "  Metadata:\n",
      "    major_brand     : mp42\n",
      "    minor_version   : 0\n",
      "    compatible_brands: isommp42\n",
      "    creation_time   : 2016-07-20 11:33:22\n",
      "  Duration: 00:02:25.71, start: 0.000000, bitrate: 385 kb/s\n",
      "    Stream #0:0(und): Video: h264 (Constrained Baseline) (avc1 / 0x31637661), yuv420p(tv, bt709), 640x360 [SAR 1:1 DAR 16:9], 287 kb/s, 23.98 fps, 23.98 tbr, 24k tbn, 47.95 tbc (default)\n",
      "    Metadata:\n",
      "      handler_name    : VideoHandler\n",
      "    Stream #0:1(und): Audio: aac (LC) (mp4a / 0x6134706D), 44100 Hz, stereo, fltp, 95 kb/s (default)\n",
      "    Metadata:\n",
      "      creation_time   : 2016-07-20 11:33:23\n",
      "      handler_name    : IsoMedia File Produced by Google, 5-11-2011\n",
      "\u001b[1;34m[swscaler @ 0x7fed14800000] \u001b[0m\u001b[0;33mdeprecated pixel format used, make sure you did set range correctly\n",
      "\u001b[0mOutput #0, image2, to 'temp/wes/budapest%04d.jpg':\n",
      "  Metadata:\n",
      "    major_brand     : mp42\n",
      "    minor_version   : 0\n",
      "    compatible_brands: isommp42\n",
      "    encoder         : Lavf56.25.101\n",
      "    Stream #0:0(und): Video: mjpeg, yuvj420p(pc), 640x360 [SAR 1:1 DAR 16:9], q=2-31, 200 kb/s, 1 fps, 1 tbn, 1 tbc (default)\n",
      "    Metadata:\n",
      "      handler_name    : VideoHandler\n",
      "      encoder         : Lavc56.26.100 mjpeg\n",
      "Stream mapping:\n",
      "  Stream #0:0 -> #0:0 (h264 (native) -> mjpeg (native))\n",
      "Press [q] to stop, [?] for help\n",
      "frame=  147 fps= 89 q=1.6 Lsize=N/A time=00:02:27.00 bitrate=N/A    \n",
      "video:3714kB audio:0kB subtitle:0kB other streams:0kB global headers:0kB muxing overhead: unknown\n",
      "Input #0, mov,mp4,m4a,3gp,3g2,mj2, from 'inputs/fox.mp4':\n",
      "  Metadata:\n",
      "    major_brand     : mp42\n",
      "    minor_version   : 0\n",
      "    compatible_brands: isommp42\n",
      "    creation_time   : 2015-05-18 09:41:16\n",
      "  Duration: 00:02:31.25, start: 0.000000, bitrate: 566 kb/s\n",
      "    Stream #0:0(und): Video: h264 (Constrained Baseline) (avc1 / 0x31637661), yuv420p, 640x360 [SAR 1:1 DAR 16:9], 468 kb/s, 23.98 fps, 23.98 tbr, 24k tbn, 47.95 tbc (default)\n",
      "    Metadata:\n",
      "      handler_name    : VideoHandler\n",
      "    Stream #0:1(eng): Audio: aac (LC) (mp4a / 0x6134706D), 44100 Hz, stereo, fltp, 95 kb/s (default)\n",
      "    Metadata:\n",
      "      creation_time   : 2015-05-18 09:41:16\n",
      "      handler_name    : IsoMedia File Produced by Google, 5-11-2011\n",
      "\u001b[1;34m[swscaler @ 0x7feab3806e00] \u001b[0m\u001b[0;33mdeprecated pixel format used, make sure you did set range correctly\n",
      "\u001b[0mOutput #0, image2, to 'temp/wes/fox%04d.jpg':\n",
      "  Metadata:\n",
      "    major_brand     : mp42\n",
      "    minor_version   : 0\n",
      "    compatible_brands: isommp42\n",
      "    encoder         : Lavf56.25.101\n",
      "    Stream #0:0(und): Video: mjpeg, yuvj420p(pc), 640x360 [SAR 1:1 DAR 16:9], q=2-31, 200 kb/s, 1 fps, 1 tbn, 1 tbc (default)\n",
      "    Metadata:\n",
      "      handler_name    : VideoHandler\n",
      "      encoder         : Lavc56.26.100 mjpeg\n",
      "Stream mapping:\n",
      "  Stream #0:0 -> #0:0 (h264 (native) -> mjpeg (native))\n",
      "Press [q] to stop, [?] for help\n",
      "frame=  152 fps= 85 q=3.0 Lsize=N/A time=00:02:32.00 bitrate=N/A    \n",
      "video:3824kB audio:0kB subtitle:0kB other streams:0kB global headers:0kB muxing overhead: unknown\n",
      "Input #0, mov,mp4,m4a,3gp,3g2,mj2, from 'inputs/royal.mp4':\n",
      "  Metadata:\n",
      "    major_brand     : mp42\n",
      "    minor_version   : 0\n",
      "    compatible_brands: isommp42\n",
      "    creation_time   : 2014-03-07 04:48:34\n",
      "  Duration: 00:02:31.07, start: 0.000000, bitrate: 327 kb/s\n",
      "    Stream #0:0(und): Video: h264 (Constrained Baseline) (avc1 / 0x31637661), yuv420p, 320x172 [SAR 1:1 DAR 80:43], 253 kb/s, 12 fps, 12 tbr, 12 tbn, 24 tbc (default)\n",
      "    Metadata:\n",
      "      handler_name    : VideoHandler\n",
      "    Stream #0:1(und): Audio: aac (LC) (mp4a / 0x6134706D), 44100 Hz, mono, fltp, 71 kb/s (default)\n",
      "    Metadata:\n",
      "      creation_time   : 2014-03-07 04:48:35\n",
      "      handler_name    : IsoMedia File Produced by Google, 5-11-2011\n",
      "\u001b[1;34m[swscaler @ 0x7fc974006000] \u001b[0m\u001b[0;33mdeprecated pixel format used, make sure you did set range correctly\n",
      "\u001b[0mOutput #0, image2, to 'temp/wes/royal%04d.jpg':\n",
      "  Metadata:\n",
      "    major_brand     : mp42\n",
      "    minor_version   : 0\n",
      "    compatible_brands: isommp42\n",
      "    encoder         : Lavf56.25.101\n",
      "    Stream #0:0(und): Video: mjpeg, yuvj420p(pc), 320x172 [SAR 1:1 DAR 80:43], q=2-31, 200 kb/s, 1 fps, 1 tbn, 1 tbc (default)\n",
      "    Metadata:\n",
      "      handler_name    : VideoHandler\n",
      "      encoder         : Lavc56.26.100 mjpeg\n",
      "Stream mapping:\n",
      "  Stream #0:0 -> #0:0 (h264 (native) -> mjpeg (native))\n",
      "Press [q] to stop, [?] for help\n",
      "frame=  152 fps=0.0 q=1.6 Lsize=N/A time=00:02:32.00 bitrate=N/A    \n",
      "video:1585kB audio:0kB subtitle:0kB other streams:0kB global headers:0kB muxing overhead: unknown\n",
      "Input #0, mov,mp4,m4a,3gp,3g2,mj2, from 'inputs/rushmore.mp4':\n",
      "  Metadata:\n",
      "    major_brand     : mp42\n",
      "    minor_version   : 0\n",
      "    compatible_brands: isommp42\n",
      "    creation_time   : 2014-03-07 06:09:25\n",
      "  Duration: 00:02:30.12, start: 0.000000, bitrate: 557 kb/s\n",
      "    Stream #0:0(und): Video: h264 (Constrained Baseline) (avc1 / 0x31637661), yuv420p, 640x360 [SAR 1:1 DAR 16:9], 460 kb/s, 29.97 fps, 29.97 tbr, 30k tbn, 59.94 tbc (default)\n",
      "    Metadata:\n",
      "      handler_name    : VideoHandler\n",
      "    Stream #0:1(und): Audio: aac (LC) (mp4a / 0x6134706D), 44100 Hz, stereo, fltp, 95 kb/s (default)\n",
      "    Metadata:\n",
      "      creation_time   : 2014-03-07 06:09:26\n",
      "      handler_name    : IsoMedia File Produced by Google, 5-11-2011\n",
      "\u001b[1;34m[swscaler @ 0x7fb3a5000600] \u001b[0m\u001b[0;33mdeprecated pixel format used, make sure you did set range correctly\n",
      "\u001b[0mOutput #0, image2, to 'temp/wes/rushmore%04d.jpg':\n",
      "  Metadata:\n",
      "    major_brand     : mp42\n",
      "    minor_version   : 0\n",
      "    compatible_brands: isommp42\n",
      "    encoder         : Lavf56.25.101\n",
      "    Stream #0:0(und): Video: mjpeg, yuvj420p(pc), 640x360 [SAR 1:1 DAR 16:9], q=2-31, 200 kb/s, 1 fps, 1 tbn, 1 tbc (default)\n",
      "    Metadata:\n",
      "      handler_name    : VideoHandler\n",
      "      encoder         : Lavc56.26.100 mjpeg\n",
      "Stream mapping:\n",
      "  Stream #0:0 -> #0:0 (h264 (native) -> mjpeg (native))\n",
      "Press [q] to stop, [?] for help\n",
      "frame=  151 fps= 73 q=1.6 Lsize=N/A time=00:02:31.00 bitrate=N/A    \n",
      "video:3741kB audio:0kB subtitle:0kB other streams:0kB global headers:0kB muxing overhead: unknown\n"
     ]
    }
   ],
   "source": [
    "!mkdir temp/wes\n",
    "\n",
    "command = \"ffmpeg -i inputs/moonrise.mp4 -vf fps=1 temp/wes/moon%04d.jpg -hide_banner\"\n",
    "!{command}\n",
    "\n",
    "command = \"ffmpeg -i inputs/budapest.mp4 -vf fps=1 temp/wes/budapest%04d.jpg -hide_banner\"\n",
    "!{command}\n",
    "\n",
    "command = \"ffmpeg -i inputs/fox.mp4 -vf fps=1 temp/wes/fox%04d.jpg -hide_banner\"\n",
    "!{command}\n",
    "\n",
    "command = \"ffmpeg -i inputs/royal.mp4 -vf fps=1 temp/wes/royal%04d.jpg -hide_banner\"\n",
    "!{command}\n",
    "\n",
    "command = \"ffmpeg -i inputs/rushmore.mp4 -vf fps=1 temp/wes/rushmore%04d.jpg -hide_banner\"\n",
    "!{command}"
   ]
  },
  {
   "cell_type": "code",
   "execution_count": 5,
   "metadata": {},
   "outputs": [
    {
     "name": "stdout",
     "output_type": "stream",
     "text": [
      "Input #0, mov,mp4,m4a,3gp,3g2,mj2, from 'inputs/bling.mp4':\n",
      "  Metadata:\n",
      "    major_brand     : mp42\n",
      "    minor_version   : 0\n",
      "    compatible_brands: isommp42\n",
      "    creation_time   : 2017-07-26 12:35:17\n",
      "  Duration: 00:04:55.57, start: 0.000000, bitrate: 392 kb/s\n",
      "    Stream #0:0(und): Video: h264 (Constrained Baseline) (avc1 / 0x31637661), yuv420p(tv, bt709), 640x360 [SAR 1:1 DAR 16:9], 293 kb/s, 23.98 fps, 23.98 tbr, 24k tbn, 47.95 tbc (default)\n",
      "    Metadata:\n",
      "      handler_name    : VideoHandler\n",
      "    Stream #0:1(eng): Audio: aac (LC) (mp4a / 0x6134706D), 44100 Hz, stereo, fltp, 95 kb/s (default)\n",
      "    Metadata:\n",
      "      creation_time   : 2017-07-26 12:35:18\n",
      "      handler_name    : IsoMedia File Produced by Google, 5-11-2011\n",
      "\u001b[1;34m[swscaler @ 0x7fe624000000] \u001b[0m\u001b[0;33mdeprecated pixel format used, make sure you did set range correctly\n",
      "\u001b[0mOutput #0, image2, to 'temp/drake/img_%04d.jpg':\n",
      "  Metadata:\n",
      "    major_brand     : mp42\n",
      "    minor_version   : 0\n",
      "    compatible_brands: isommp42\n",
      "    encoder         : Lavf56.25.101\n",
      "    Stream #0:0(und): Video: mjpeg, yuvj420p(pc), 640x360 [SAR 1:1 DAR 16:9], q=2-31, 200 kb/s, 23.98 fps, 23.98 tbn, 23.98 tbc (default)\n",
      "    Metadata:\n",
      "      handler_name    : VideoHandler\n",
      "      encoder         : Lavc56.26.100 mjpeg\n",
      "Stream mapping:\n",
      "  Stream #0:0 -> #0:0 (h264 (native) -> mjpeg (native))\n",
      "Press [q] to stop, [?] for help\n",
      "frame= 7085 fps=412 q=24.8 Lsize=N/A time=00:04:55.50 bitrate=N/A    \n",
      "video:44008kB audio:0kB subtitle:0kB other streams:0kB global headers:0kB muxing overhead: unknown\n"
     ]
    }
   ],
   "source": [
    "!mkdir temp/drake\n",
    "\n",
    "command = \"ffmpeg -i inputs/bling.mp4 temp/drake/img_%04d.jpg -hide_banner\"\n",
    "!{command}"
   ]
  },
  {
   "cell_type": "code",
   "execution_count": null,
   "metadata": {
    "collapsed": true
   },
   "outputs": [],
   "source": [
    "!wget -O inputs/aha.jpg \\\n",
    "  https://ewedit.files.wordpress.com/2015/10/a-ha-take-on-me.jpg?w=612"
   ]
  },
  {
   "cell_type": "code",
   "execution_count": null,
   "metadata": {
    "collapsed": true
   },
   "outputs": [],
   "source": [
    "from IPython.display import Image\n",
    "from IPython.display import HTML\n",
    "\n",
    "!wget -O inputs/moon.jpg \\\n",
    "  https://github.com/titu1994/Neural-Style-Transfer/raw/master/images/inputs/content/blue-moon-lake.jpg\n",
    "!wget -O inputs/starry.jpg \\\n",
    "  https://github.com/titu1994/Neural-Style-Transfer/raw/master/images/inputs/style/starry_night.jpg        \n",
    "\n",
    "!python /usr/local/anaconda/extras/Neural-Style-Transfer/INetwork.py \\\n",
    "    --image_size 110 \\\n",
    "    inputs/moon.jpg \\\n",
    "    inputs/starry.jpg \\\n",
    "    outputs/starry_moon.jpg\n",
    "\n",
    "Image(\"outputs/starry_moon.jpg_at_iteration_10.png\")"
   ]
  }
 ],
 "metadata": {
  "kernelspec": {
   "display_name": "Python 3",
   "language": "python",
   "name": "python3"
  },
  "language_info": {
   "codemirror_mode": {
    "name": "ipython",
    "version": 3
   },
   "file_extension": ".py",
   "mimetype": "text/x-python",
   "name": "python",
   "nbconvert_exporter": "python",
   "pygments_lexer": "ipython3",
   "version": "3.6.1"
  }
 },
 "nbformat": 4,
 "nbformat_minor": 2
}
